<svg xmlns="http://www.w3.org/2000/svg" id="Layer_1" width="5.129in" height="5.876in" viewBox="0 0 369.306 423.05"><path id="path6" d="M74.211,127.702c-3.454,5.899-6.937,11.705-11.12,17.06-2.788,3.569-5.954,6.754-9.676,9.346-8.826,6.146-17.914,5.763-26.26-1.011-5.025-4.08-8.956-9.078-12.223-14.605C7.526,125.969,1.994,112.749.295,98.15c-1.258-10.795,1.452-20.267,9.16-28.194,6.593-6.782,14.629-11.436,22.81-15.902,4.951-2.702,9.951-5.314,14.923-7.979,6.727-3.607,13.257-7.431,19.091-12.494,5.724-4.967,12.382-8.589,19.868-10.286,9.058-2.055,17.578.175,25.345,4.606,4.084,2.329,7.015,2.058,10.961-.1,9.188-5.024,19.128-8.342,29.162-11.279,7.512-2.198,13.724-5.899,17.649-13.014,1.876-3.401,5.689-3.269,7.871,0,.74,1.109,1.213,2.398,1.929,3.852,3.087-2.215,6.075-4.462,9.554-5.844,1.162-.461,2.359-.856,3.571-1.162,5.536-1.397,8.365,1.45,6.927,6.937-.182.695-.391,1.381-.701,2.469,2.153-.347,3.956-1.168,5.899-1.166,2.537,0,4.433,1.013,4.741,3.569.216,1.79,1.087,2.147,2.535,2.49,13.787,3.267,27.04,7.991,39.497,14.802,1.427.781,2.421.477,3.705-.263,4.819-2.773,9.906-4.878,15.398-5.999,10.259-2.094,19.674.671,27.521,6.743,13.842,10.708,29.381,18.375,44.495,26.856,5.3,2.975,10.226,6.499,14.819,10.512,10.514,9.191,13.987,20.718,11.519,34.222-2.806,15.349-9.056,29.28-17.767,42.138-2.951,4.358-6.493,8.22-10.93,11.138-7.525,4.949-15.135,4.902-22.645.035-7.953-5.155-13.116-12.782-17.922-20.693-.485-.797-.979-1.587-1.482-2.372-.033-.051-.182-.028-.5-.063-1.166,9.46-1.217,18.871.848,28.226,2.89,13.106,2.796,25.773-5.385,37.272-4.739,6.662-10.777,11.939-17.594,16.366-4.478,2.908-9.097,5.61-14.025,7.647-2.775,1.146-2.494,2.172-.881,4.154,3.972,4.88,8.222,9.49,12.622,13.975,7.918,8.077,15.745,16.236,22.003,25.73,4.598,6.974,8.049,14.396,8.718,22.886.685,8.707-1.332,16.581-6.978,23.395-.636.767-2.031,1.499-.179,2.586,8.981,5.263,11.862,13.591,11.529,23.428-.055,1.635.3,2.631,1.721,3.607,14.023,9.625,18.669,22.627,13.222,38.754-5.936,17.568-16.988,31.12-33.765,39.454-17.099,8.495-33.32,2.112-40.104-10.71-.732-1.385-1.605-1.219-2.828-.958-13.106,2.804-26.356,4.537-39.735,5.394-4.5.288-8.991.353-13.489.416-1.97.028-3.989-.283-5.801.887-.312.202-.81.277-1.181.206-11.617-2.245-23.501-1.234-35.172-2.94-7.651-1.116-15.306-2.164-22.878-3.752-1.55-.326-2.888-.775-4.197,1.256-7.918,12.276-19.529,16.469-33.644,12.467-20.614-5.846-40.531-30.406-41.864-51.502-.769-12.166,4.011-21.554,14.011-28.31,1.968-1.33,2.987-2.545,2.928-5.171-.214-9.36,2.955-17.233,11.222-22.419,1.346-.844.914-1.421.151-2.38-8.442-10.606-9.209-22.319-4.547-34.587,4.551-11.974,12.716-21.536,21.34-30.724,6.585-7.017,13.728-13.501,19.782-21.036,1.684-2.096,1.207-2.708-.96-3.666-7.865-3.475-15.294-7.716-22.033-13.114-15.114-12.107-20.781-27.482-16.32-46.487,2.659-11.357,2.015-22.796.371-34.356ZM265.704,56.873c4.58,2.81,7.89,6.662,10.728,10.962,5.116,7.753,8.31,16.362,11.307,25.07,5.002,14.545,10.502,28.873,18.834,41.923,3.509,5.496,7.459,10.643,12.824,14.488,6.489,4.651,12.761,4.407,18.975-.628,2.043-1.656,3.846-3.56,5.43-5.648,9.18-12.09,15.328-25.596,18.575-40.402,3.132-14.27-1.221-25.677-13.153-34.281-6.556-4.729-13.55-8.669-20.651-12.459-2.804-1.495-5.616-2.975-8.424-4.46,2.663,4.937,6.152,9.17,8.202,14.266-1.572-1.179-2.82-2.576-4.099-3.944-7.514-8.026-15.067-16.02-23.732-22.839-5.702-4.488-11.748-8.461-18.985-9.994-9.35-1.978-17.549,1.446-25.233,6.173-2.518,1.548-4.182,1.48-6.668.11-12.79-7.051-26.316-12.223-40.682-15.055-5.061-.997-5.071-.944-5.81-5.907-2.117.267-3.991,1.197-5.832,2.176-1.535.816-3.067,1.562-4.655.288-1.548-1.242-1.372-3.024-.962-4.647.498-1.972,1.291-3.87,2.106-6.236-4.78,1.093-8.149,3.65-11.46,6.34-1.782,1.448-3.52,2.991-5.459,4.197-2.439,1.517-3.308.928-3.479-1.898-.11-1.825.387-3.732-.765-6.036-5.82,10.184-15.91,12.663-25.692,15.683-8.202,2.531-16.383,5.343-23.685,9.808-4.755,2.908-8.22,2.643-12.849-.155-13.163-7.959-26.008-6.786-38.239,2.539-6.014,4.586-11.464,9.751-16.827,15.057-4.753,4.704-9.784,9.125-13.822,12.867,2.416-3.605,5.538-8.269,8.66-12.931-8.548,4.513-17.205,8.495-25.141,13.752-2.698,1.788-5.334,3.697-7.853,5.728-8.456,6.825-12.386,15.59-10.987,26.509,2.221,17.325,9.033,32.725,19.721,46.446,1.464,1.88,3.257,3.561,5.114,5.069,6.056,4.908,11.956,5.12,18.463.858,1.937-1.27,3.66-2.787,5.259-4.45,5.043-5.245,8.983-11.27,12.5-17.602,7.696-13.864,12.669-28.856,18.169-43.634,3.689-9.912,8.789-18.964,16.762-26.146.551-.497,1.203-.879,1.809-1.315-.067.96-.418,1.562-.805,2.141-6.081,9.091-10.822,18.811-14.101,29.266-2.624,8.365-4.969,16.848-8.738,24.796-1.242,2.622-1.34,5.059-.932,7.83,2.143,14.543,3.303,29.068-.11,43.643-3.948,16.868,2.025,30.143,15.418,40.488,4.727,3.652,9.768,6.815,15.102,9.521,15.881,8.057,32.896,12.58,50.178,16.381,10.969,2.412,21.935,4.584,33.228,3.291,17.186-1.968,33.863-6.262,50.215-11.758,12.837-4.315,25.057-9.998,35.557-18.775,9.898-8.275,16.107-18.434,14.862-31.878-.481-5.19-1.662-10.31-2.388-15.481-1.572-11.195-.453-22.345.769-33.481.116-1.056.22-1.994-.271-3.022-4.203-8.789-7.192-18.028-9.961-27.341-3.291-11.063-7.431-21.742-13.811-31.444-.84-1.27-1.67-2.545-2.504-3.819ZM272.864,264.7c-3.275,1.232-6.185,2.237-9.025,3.414-6.097,2.529-11.517,5.989-15.074,11.764-1.825,2.963-2.555,6.113-1.389,9.582.604,1.796,1.258,2.321,3.081,1.238,3.25-1.929,6.764-3.022,11.387-2.292-3.373,1.48-6.132,2.635-8.589,4.356-4.04,2.828-4.821,5.787-2.741,10.608,1.99,4.613,5.542,6.746,9.768,5.969,4.103-.754,7.894-2.496,12.525-4.093-3.546,4.203-7.669,6.081-11.943,7.747,2.192,2.894,5.606,4.625,9.47,4.861,17.357,1.052,30.863-15.339,27.099-32.804-2.235-10.367-8.118-18.685-14.723-26.599-9.254-11.087-20.443-20.431-29.044-32.111-.987-1.34-2.068-.973-3.312-.502-12.333,4.674-25.088,7.859-37.931,10.744-11.169,2.508-22.441,4.396-33.895,3.051-17.158-2.013-33.871-6.15-50.266-11.574-2.567-.85-5.3-2.712-7.639-2.302-2.429.426-3.481,3.893-5.326,5.871-.642.689-1.224,1.434-1.87,2.117-6.97,7.378-14.095,14.617-20.883,22.158-6.886,7.651-12.949,15.918-16.105,25.912-5.228,16.558,3.524,32.176,20.012,35.637,5.803,1.219,11.118.216,15.708-4.415-4.466-1.813-8.654-3.446-11.882-7.665,3.766,1.317,6.919,2.639,10.19,3.516,7.18,1.925,12.735-2.553,12.849-10.076.035-2.292-.797-4.007-2.626-5.367-2.745-2.039-5.844-3.436-8.842-5.131,3.978-.655,7.571.491,10.81,2.626,1.737,1.144,2.298.544,2.826-1.032,1.748-5.204-.159-9.427-3.591-13.179-4.896-5.353-11.428-7.922-17.994-10.437-1.138-.436-2.573-.459-3.717-2.086,1.733,0,3.008-.171,4.221.033,2.922.497,4.927-.581,7.157-2.575,21.87-19.56,56.03-16.211,73.529,7.145,1.425,1.903,1.805,1.376,2.939-.141,16.43-21.992,49.379-26.448,70.678-9.258,3.983,3.216,7.522,5.961,12.855,4.937.253-.053.551.137,1.301.351ZM172.304,406.898c-10.983-7.316-21.625-14.994-31.442-23.771-18.391-16.446-34.042-34.835-41.768-58.84-.473-1.468-1.399-1.874-2.769-1.98-4.031-.31-7.798-1.531-11.144-3.783-1.725-1.162-3.23-1.032-4.923-.12-6.262,3.375-8.675,8.956-9.291,15.702-.23,2.52.249,3.165,2.906,2.437,9.702-2.657,18.683-.836,26.646,5.269,7.788,5.969,12.926,13.844,15.773,23.218.638,2.102,1.389,4.199,1.201,7.125-4.301-9.443-9.311-17.567-16.882-23.84-7.049-5.84-14.915-8.55-24.162-6.672-11.191,2.274-20.151,10.663-22.123,21.254-1.016,5.457-.39,10.857,1.584,16.036,6.65,17.445,17.775,30.8,35.853,36.936,12.494,4.239,23.434-1.14,28.897-13.137,1.434-3.151,2.292-6.483,3.22-9.804.404-1.448.214-3.157,1.548-4.39,1.264,3.63,1.069,7.286.81,10.922-.092,1.297-.114,2.166,1.493,2.473,14.694,2.787,29.46,4.928,44.572,4.965ZM247.733,387.813c1.295,4.372,2.239,8.108,3.503,11.733,5.441,15.602,18.563,21.736,33.714,15.076,16.89-7.423,27.286-20.893,32.992-38.176,1.468-4.445,1.756-9.066.879-13.642-3.377-17.61-25.053-27.182-41.063-18.2-8.226,4.615-13.771,11.733-18.342,19.747-1.313,2.302-2.569,4.637-3.85,6.954.237-4.103,1.434-7.871,3.083-11.468,5.069-11.063,12.343-19.862,24.611-23.351,5.581-1.587,11.154-1.301,16.735.092.716.178,1.927,1.332,2.263-.736,1.058-6.523-3.85-15.206-10.076-17.665-1.46-.577-2.698-.624-4.127.255-3.509,2.158-7.341,3.561-11.481,3.823-1.707.108-2.257,1.02-2.704,2.459-3.038,9.754-7.637,18.758-13.485,27.109-15.298,21.852-34.945,39.038-57.354,53.241-.891.563-1.996.928-2.633,2.249,15.273-.528,30.068-2.404,44.737-5.383,1.668-.339,1.872-1.217,1.733-2.671-.341-3.616-.375-7.231.867-11.446ZM270.315,146.055c-.01,15.718-13.711,27.07-29.615,24.513-1.85-.298-3.701-.659-5.512-1.138-9.052-2.398-14.123-7.912-15.065-17.6-1.248-12.859,6.175-26.008,17.596-29.851,16.026-5.394,32.606,6.852,32.596,24.076ZM227.131,133.73c5.736-3.636,11.307-4.751,17.078-3.473,5.881,1.301,10.461,4.715,13.306,10.124,5.282,10.037,2.117,19.378-9.478,28.279,9.119-1.164,15.969-7.953,17.074-16.925,1.368-11.089-4.39-21.04-14.384-24.86-8.185-3.132-18.501-.41-23.597,6.856ZM234.87,136.833c-3.32-.022-6.003,2.649-5.983,5.956.02,3.236,2.753,5.999,5.987,6.052,3.257.053,6.069-2.608,6.175-5.844.106-3.31-2.73-6.14-6.179-6.164ZM251.305,157.576c-.345-1.85-1.495-3.034-3.391-2.932-1.833.098-2.816,1.533-2.692,3.246s1.274,2.934,3.14,2.8c1.768-.124,2.8-1.217,2.943-3.114ZM151.541,147.7c.096,13.966-5.842,20.522-20.059,22.839-13.322,2.172-25.842-5.441-29.03-17.657-3.673-14.07,4.341-28.043,18.041-31.454,13.432-3.344,26.834,5.306,30.276,19.507.597,2.461.791,4.943.771,6.764ZM145.403,133.962c-6.784-8.358-17.366-10.671-26.397-6.193-9.284,4.603-14.233,15.359-11.772,25.588,2.068,8.595,9.286,15.247,16.456,15.161-12.429-6.88-13.989-20.082-8.913-28.842,5.916-10.21,17.021-12.496,30.626-5.714ZM136.587,136.821c-3.397.029-5.907,2.543-5.907,5.91,0,3.463,2.663,6.124,6.122,6.12,3.299-.004,5.865-2.602,5.885-5.959.022-3.479-2.614-6.103-6.101-6.071ZM126.71,157.639c-.29-1.815-1.262-3.067-3.083-2.987-1.884.082-3.153,1.225-2.996,3.273.141,1.844,1.352,2.849,3.159,2.771,1.852-.08,2.7-1.354,2.92-3.057ZM211.49,196.775c.669,8.738-7.312,14.803-15.734,12.765-2.883-.698-5.589-1.903-7.586-4.144-1.464-1.643-2.261-1.892-4.044-.092-5.447,5.492-13.351,6.093-19.107,1.752-3.153-2.378-4.755-5.526-4.209-9.655,2.041,4.645,5.271,7.669,10.414,8.3,6.699.822,12.659-4.178,12.824-10.665.043-1.731-.383-2.553-2.217-3.036-4.843-1.276-9.052-3.734-12.268-7.684-5.408-6.64-3.528-14.162,4.509-17.074,7.928-2.873,16.038-2.859,23.946.076,8.146,3.024,9.916,10.269,4.39,17.031-3.218,3.938-7.396,6.45-12.276,7.667-1.746.436-2.108,1.189-1.998,2.816.385,5.653,3.56,9.39,9.262,10.691,5.241,1.197,10.053-1.019,12.622-5.822.383-.719.732-1.451,1.474-2.925ZM185.599,174.144c2.918-.045,5.846-.004,8.687-.842.689-.204,1.517-.357,1.642-1.211.133-.91-.665-1.276-1.327-1.507-5.702-1.988-11.428-2.045-17.141-.045-.671.235-1.46.569-1.436,1.448.024.883.82,1.095,1.515,1.328,2.623.876,5.357.694,8.059.828ZM130.396,96.445c1.899-.253,3.791-1.152,3.668-3.536-.124-2.351-1.899-3.33-3.978-3.76-7.692-1.59-16.956,4.659-18.789,13.263,6.232-3.542,12.553-5.092,19.099-5.967ZM240.165,89.208c-1.956.483-3.642,1.556-3.742,3.681-.098,2.09,1.538,3.167,3.428,3.446,6.489.962,12.871,2.259,19.199,5.875-1.717-8.506-11.481-14.827-18.885-13.002ZM74.717,388.533c.027-10.587,8.314-16.654,18.436-13.499,9.503,2.963,16.307,12.91,15.604,22.818-.6,8.477-7.427,13.826-15.763,12.349-10.108-1.792-18.304-11.507-18.277-21.668ZM105.598,396.186c.008-8.387-6.835-16.893-14.98-18.62-5.901-1.25-10.814,1.85-12.296,7.757-2.017,8.042,4.078,17.979,12.922,21.067,7.998,2.793,14.346-1.719,14.354-10.204ZM82.973,362.97c.051,6.913-4.082,9.576-9.182,6.964-4.735-2.423-7.302-6.495-7.724-11.709-.447-5.54,4.058-8.636,9.046-6.266,5.047,2.402,7.584,6.601,7.859,11.011ZM79.896,363.637c-.218-3.361-2.076-6.364-5.324-8.493-1.134-.744-2.437-1.356-3.803-.471-1.399.907-1.725,2.369-1.523,3.862.522,3.866,2.492,6.858,5.961,8.669,2.808,1.466,4.688.189,4.688-3.567ZM82.822,354.067c-.033-5.434,4.211-8.032,8.909-5.347,4.086,2.333,6.377,5.993,6.774,10.651.416,4.876-3.507,7.718-7.961,5.948-4.231-1.682-7.696-6.729-7.722-11.252ZM95.443,359.116c-.445-3.124-2.123-5.91-5.19-7.68-2.321-1.338-4.089-.241-4.262,2.445-.204,3.175,2.384,7.2,5.434,8.454,2.469,1.016,4.076-.112,4.019-3.218ZM70.598,375.225c-.006,4.203-3.167,6.336-7.013,4.552-4.307-1.998-6.75-5.575-7.459-10.188-.612-3.987,2.663-6.564,6.56-5.387,4.333,1.311,7.918,6.307,7.912,11.022ZM67.684,375.054c-.6-3.532-2.127-6.274-5.29-7.814-1.986-.967-3.301-.076-3.271,2.07.037,2.694,3.13,6.746,5.742,7.643,2.017.695,2.649-.324,2.82-1.9ZM298.343,388.602c.031,10.443-9.551,21.048-19.917,22.043-7.486.72-13.565-4.906-14.384-13.31-.979-10.041,8.242-21.678,18.24-23.014,9.25-1.238,16.034,4.794,16.061,14.282ZM267.401,395.78c-.218,7.985,5.288,12.826,12.745,11.201,7.949-1.731,15.074-10.663,14.949-18.744-.122-7.857-6.285-12.437-13.84-10.286-7.735,2.206-13.636,9.798-13.854,17.829ZM290.15,363.109c.392-4.231,2.557-8.46,7.306-10.962,5.167-2.722,10.014.412,9.547,6.256-.42,5.263-3.136,9.27-7.938,11.583-5.049,2.435-8.987-.229-8.915-6.878ZM303.965,357.872c-.053-2.792-1.766-4.15-4.219-3.34-3.817,1.258-7.168,6.805-6.47,10.71.398,2.231,1.678,2.936,3.821,2.241,3.458-1.122,6.937-5.965,6.868-9.611ZM274.487,358.68c.457-4.007,2.655-7.869,7.102-10.127,4.631-2.355,8.785.373,8.689,5.541-.082,4.486-4.005,9.866-8.226,11.289-4.374,1.474-7.624-1.018-7.565-6.703ZM277.6,358.969c-.079,3.322,1.511,4.545,3.925,3.297,3.146-1.627,5.147-4.27,5.54-7.853.338-3.077-1.558-4.415-4.241-2.987-3.175,1.687-4.8,4.513-5.224,7.543ZM312.185,363.72c2.961-.051,5.051,2.274,5,5.569-.069,4.657-4.35,9.923-8.866,10.942-2.488.561-4.399-.241-5.341-2.592-2.119-5.286,3.583-13.82,9.207-13.919ZM314.069,369.357c.008-2.204-1.24-3.097-3.232-2.313-2.531.997-5.508,5.324-5.341,7.992.106,1.703.808,2.784,2.865,2.015,2.663-.993,5.7-4.98,5.708-7.694Z" fill="#1a1a1a" stroke-width="0"/></svg>